<svg width="30" height="30" viewBox="0 0 30 30" fill="none" xmlns="http://www.w3.org/2000/svg">
<g clip-path="url(#clip0_528_563)">
<path d="M14.6346 0.585449C6.87536 0.585449 0.585388 6.87542 0.585388 14.6347C0.585388 22.394 6.87536 28.684 14.6346 28.684C22.3939 28.684 28.6839 22.394 28.6839 14.6347C28.6839 6.87542 22.3939 0.585449 14.6346 0.585449ZM11.1955 20.4578H8.35053V11.3024H11.1955V20.4578ZM9.75546 10.1785C8.85689 10.1785 8.27589 9.54185 8.27589 8.75451C8.27589 7.95107 8.87445 7.33348 9.79204 7.33348C10.7096 7.33348 11.2716 7.95107 11.2892 8.75451C11.2892 9.54185 10.7096 10.1785 9.75546 10.1785ZM21.5861 20.4578H18.7411V15.384C18.7411 14.203 18.3284 13.401 17.2996 13.401C16.5137 13.401 16.0469 13.944 15.8405 14.4664C15.7644 14.6523 15.7454 14.9157 15.7454 15.1777V20.4564H12.899V14.222C12.899 13.079 12.8624 12.1234 12.8243 11.3009H15.2961L15.4264 12.5727H15.4835C15.8581 11.9756 16.7757 11.0946 18.3109 11.0946C20.1826 11.0946 21.5861 12.3488 21.5861 15.0445V20.4578Z" fill="#3D445C"/>
</g>
<defs>
<clipPath id="clip0_528_563">
<rect width="29.2693" height="29.2693" fill="white"/>
</clipPath>
</defs>
</svg>
