<svg width="30" height="30" viewBox="0 0 30 30" fill="none" xmlns="http://www.w3.org/2000/svg">
<g clip-path="url(#clip0_528_565)">
<path d="M14.6346 0.585449C6.87536 0.585449 0.585388 6.87542 0.585388 14.6347C0.585388 22.394 6.87536 28.684 14.6346 28.684C22.3939 28.684 28.6839 22.394 28.6839 14.6347C28.6839 6.87542 22.3939 0.585449 14.6346 0.585449ZM20.3495 12.0941C20.3553 12.2141 20.3568 12.3341 20.3568 12.4512C20.3568 16.1099 17.5747 20.3261 12.4848 20.3261C10.9808 20.3286 9.50808 19.8967 8.2437 19.0822C8.45883 19.1085 8.67981 19.1188 8.90372 19.1188C10.2003 19.1188 11.3931 18.6783 12.3399 17.9348C11.7629 17.9235 11.2038 17.7324 10.7405 17.3882C10.2773 17.0441 9.9329 16.5639 9.75546 16.0148C10.1698 16.0936 10.5967 16.077 11.0038 15.9665C10.3775 15.8398 9.81428 15.5005 9.40965 15.0059C9.00502 14.5114 8.78387 13.8922 8.78372 13.2532V13.2195C9.1569 13.4259 9.58423 13.5517 10.0379 13.5664C9.45076 13.1755 9.03512 12.5751 8.87598 11.888C8.71684 11.2008 8.82623 10.4788 9.18178 9.86967C9.87686 10.7243 10.7437 11.4235 11.7261 11.9219C12.7085 12.4203 13.7847 12.7068 14.8849 12.7629C14.745 12.1692 14.8052 11.5459 15.0561 10.99C15.3071 10.434 15.7346 9.97649 16.2724 9.68858C16.8101 9.40068 17.4279 9.29851 18.0297 9.39795C18.6315 9.49739 19.1836 9.79287 19.6002 10.2385C20.2195 10.1159 20.8134 9.88877 21.3563 9.56673C21.1499 10.2079 20.7178 10.7524 20.1402 11.099C20.6888 11.0329 21.2244 10.8854 21.7295 10.6614C21.3585 11.2174 20.8912 11.7026 20.3495 12.0941Z" fill="#3D445C"/>
</g>
<defs>
<clipPath id="clip0_528_565">
<rect width="29.2693" height="29.2693" fill="white"/>
</clipPath>
</defs>
</svg>
