<svg width="30" height="30" viewBox="0 0 30 30" fill="none" xmlns="http://www.w3.org/2000/svg">
<g clip-path="url(#clip0_294_404)">
<rect y="12.1955" width="17.0737" height="17.0738" fill="#7595FD"/>
<path d="M23.7813 3.65867C22.9729 3.65932 22.1977 3.98075 21.6261 4.55238C21.0545 5.12402 20.733 5.89914 20.7324 6.70756C20.7324 7.14294 20.8275 7.55637 20.9934 7.93321L18.6091 10.615C17.7992 10.0559 16.8383 9.75649 15.8542 9.75644C14.9517 9.75644 14.1175 10.0199 13.3919 10.4467L10.6186 7.67466L10.5906 7.70271C10.8296 7.21733 10.976 6.67707 10.976 6.09778C10.976 5.37417 10.7614 4.6668 10.3594 4.06514C9.95734 3.46347 9.38594 2.99453 8.7174 2.71762C8.04887 2.4407 7.31323 2.36825 6.60352 2.50942C5.89381 2.65059 5.2419 2.99904 4.73023 3.51072C4.21856 4.02239 3.8701 4.6743 3.72893 5.38401C3.58776 6.09372 3.66022 6.82936 3.93713 7.49789C4.21405 8.16642 4.68299 8.73783 5.28465 9.13984C5.88631 9.54186 6.59368 9.75644 7.31729 9.75644C7.89658 9.75644 8.43562 9.61009 8.92223 9.37106L8.89418 9.39911L11.6674 12.1712C11.2194 12.9151 10.9805 13.7662 10.976 14.6347C10.976 15.8505 11.4394 16.9506 12.1772 17.8067L9.03442 20.9483C8.68218 20.8073 8.30648 20.7341 7.92707 20.7324C6.24653 20.7324 4.87819 22.0995 4.87819 23.7813C4.87819 25.4631 6.24653 26.8302 7.92707 26.8302C9.60761 26.8302 10.976 25.4631 10.976 23.7813C10.976 23.3898 10.8955 23.0179 10.7601 22.6727L14.2212 19.2116C14.7346 19.3946 15.2785 19.5129 15.8542 19.5129C18.5445 19.5129 20.7324 17.325 20.7324 14.6347C20.7324 13.859 20.5336 13.1358 20.2104 12.4834L22.7922 9.57717C23.1044 9.68449 23.4337 9.75644 23.7813 9.75644C25.463 9.75644 26.8302 8.38932 26.8302 6.70756C26.8302 5.02579 25.463 3.65867 23.7813 3.65867ZM15.8542 17.0738C14.509 17.0738 13.4151 15.9798 13.4151 14.6347C13.4151 13.2895 14.509 12.1955 15.8542 12.1955C17.1993 12.1955 18.2933 13.2895 18.2933 14.6347C18.2933 15.9798 17.1993 17.0738 15.8542 17.0738Z" fill="white"/>
</g>
<defs>
<clipPath id="clip0_294_404">
<rect width="29.2693" height="29.2693" fill="white"/>
</clipPath>
</defs>
</svg>
