<svg width="30" height="30" viewBox="0 0 30 30" fill="none" xmlns="http://www.w3.org/2000/svg">
<g clip-path="url(#clip0_294_410)">
<rect y="12.1955" width="17.0737" height="17.0738" fill="#7595FD"/>
<path d="M13.4151 7.31734H17.0738L21.0861 3.29281C21.1995 3.1785 21.3344 3.08778 21.483 3.02586C21.6316 2.96394 21.791 2.93207 21.952 2.93207C22.113 2.93207 22.2724 2.96394 22.421 3.02586C22.5696 3.08778 22.7045 3.1785 22.8179 3.29281L25.9643 6.45145C26.1915 6.67995 26.319 6.98905 26.319 7.31124C26.319 7.63343 26.1915 7.94253 25.9643 8.17102L23.1715 10.976H13.4151V13.4151C13.4151 13.7386 13.2866 14.0487 13.0579 14.2775C12.8292 14.5062 12.519 14.6347 12.1956 14.6347C11.8721 14.6347 11.5619 14.5062 11.3332 14.2775C11.1045 14.0487 10.976 13.7386 10.976 13.4151V9.75644C10.976 9.10955 11.233 8.48916 11.6904 8.03173C12.1478 7.57431 12.7682 7.31734 13.4151 7.31734ZM6.09779 13.4151V18.2933L3.30502 21.0861C3.07787 21.3146 2.95038 21.6237 2.95038 21.9459C2.95038 22.2681 3.07787 22.5772 3.30502 22.8057L6.45146 25.9643C6.56484 26.0786 6.69972 26.1693 6.84833 26.2313C6.99695 26.2932 7.15635 26.3251 7.31735 26.3251C7.47834 26.3251 7.63774 26.2932 7.78636 26.2313C7.93497 26.1693 8.06986 26.0786 8.18323 25.9643L13.4151 20.7324H18.2933C18.6168 20.7324 18.927 20.6039 19.1557 20.3752C19.3844 20.1465 19.5129 19.8363 19.5129 19.5129V18.2933H20.7324C21.0559 18.2933 21.3661 18.1648 21.5948 17.9361C21.8235 17.7074 21.952 17.3972 21.952 17.0738V15.8542H23.1715C23.495 15.8542 23.8052 15.7257 24.0339 15.497C24.2626 15.2683 24.3911 14.9581 24.3911 14.6347V13.4151H15.8542V14.6347C15.8542 15.2815 15.5972 15.9019 15.1398 16.3594C14.6824 16.8168 14.062 17.0738 13.4151 17.0738H10.976C10.3291 17.0738 9.70872 16.8168 9.2513 16.3594C8.79388 15.9019 8.5369 15.2815 8.5369 14.6347V10.976L6.09779 13.4151Z" fill="#292E3D"/>
</g>
<defs>
<clipPath id="clip0_294_410">
<rect width="29.2693" height="29.2693" fill="white"/>
</clipPath>
</defs>
</svg>
