<svg width="25" height="20" viewBox="0 0 25 20" fill="none" xmlns="http://www.w3.org/2000/svg">
<path d="M19.5129 14.6346H17.0738V13.4151H7.31732V14.6346H4.87821V13.4151H0V19.5129H24.3911V13.4151H19.5129V14.6346ZM21.952 4.87821H18.2933V2.43911C18.2933 1.0976 17.1957 0 15.8542 0H8.53688C7.19537 0 6.09777 1.0976 6.09777 2.43911V4.87821H2.43911C1.0976 4.87821 0 5.97581 0 7.31732V12.1955H4.87821V9.75643H7.31732V12.1955H17.0738V9.75643H19.5129V12.1955H24.3911V7.31732C24.3911 5.97581 23.2935 4.87821 21.952 4.87821ZM15.8542 4.87821H8.53688V2.43911H15.8542V4.87821Z" fill="white"/>
</svg>
